<svg width="56" height="72" viewBox="0 0 56 72" fill="none" xmlns="http://www.w3.org/2000/svg">
<g clip-path="url(#clip0_0_2042)">
<path d="M50.9771 67.2751H4.15025C3.83805 67.2748 3.53872 67.1542 3.31796 66.9399C3.0972 66.7256 2.97302 66.4351 2.97266 66.132V11.6665C2.973 11.3635 3.09718 11.0729 3.31795 10.8586C3.53872 10.6443 3.83804 10.5238 4.15025 10.5234H50.9771C51.2893 10.5238 51.5886 10.6443 51.8094 10.8586C52.0302 11.0729 52.1543 11.3635 52.1547 11.6665V66.132C52.1543 66.4351 52.0301 66.7256 51.8094 66.9399C51.5886 67.1542 51.2893 67.2748 50.9771 67.2751Z" fill="#EFEBF9"/>
<path d="M29.7664 7H2.2243C1.63463 7.00083 1.06936 7.23362 0.652405 7.64735C0.235449 8.06107 0.000834509 8.62197 0 9.20706V62.1506L0.261682 62.0714V9.20706C0.262315 8.69077 0.469294 8.1958 0.837219 7.83073C1.20514 7.46566 1.70397 7.26028 2.2243 7.25965H29.8475L29.7664 7ZM53.7757 7H2.2243C1.63463 7.00083 1.06936 7.23362 0.652405 7.64735C0.235449 8.06107 0.000834509 8.62197 0 9.20706V68.6679C0.000834164 69.253 0.235448 69.8139 0.652405 70.2277C1.06936 70.6414 1.63463 70.8742 2.2243 70.875H53.7757C54.3654 70.8742 54.9306 70.6414 55.3476 70.2277C55.7646 69.8139 55.9992 69.253 56 68.6679V9.20706C55.9992 8.62197 55.7646 8.06107 55.3476 7.64735C54.9306 7.23362 54.3654 7.00083 53.7757 7ZM55.7383 68.6679C55.7377 69.1842 55.5307 69.6792 55.1628 70.0443C54.7949 70.4093 54.296 70.6147 53.7757 70.6153H2.2243C1.70397 70.6147 1.20514 70.4093 0.837219 70.0443C0.469294 69.6792 0.262315 69.1842 0.261682 68.6679V9.20706C0.262315 8.69077 0.469294 8.1958 0.837219 7.83073C1.20514 7.46566 1.70397 7.26028 2.2243 7.25965H53.7757C54.296 7.26028 54.7949 7.46566 55.1628 7.83073C55.5307 8.1958 55.7377 8.69077 55.7383 9.20706V68.6679Z" fill="#7730BF"/>
<path d="M39.8568 13.1893H15.8314C15.5198 13.189 15.2211 13.0648 15.0008 12.8441C14.7805 12.6235 14.6566 12.3243 14.6562 12.0122V6.25722C14.6566 5.94513 14.7805 5.64593 15.0008 5.42524C15.2211 5.20456 15.5198 5.08043 15.8314 5.08008H39.8568C40.1684 5.08043 40.4671 5.20456 40.6874 5.42524C40.9077 5.64593 41.0316 5.94513 41.032 6.25722V12.0122C41.0316 12.3243 40.9077 12.6235 40.6874 12.8441C40.4671 13.0648 40.1684 13.189 39.8568 13.1893Z" fill="#772FC0"/>
<path d="M27.7911 5.472C29.2334 5.472 30.4026 4.30083 30.4026 2.85612C30.4026 1.4114 29.2334 0.240234 27.7911 0.240234C26.3489 0.240234 25.1797 1.4114 25.1797 2.85612C25.1797 4.30083 26.3489 5.472 27.7911 5.472Z" fill="#772FC0"/>
<path d="M27.8992 4.4503C28.7777 4.4503 29.4898 3.73695 29.4898 2.85699C29.4898 1.97702 28.7777 1.26367 27.8992 1.26367C27.0207 1.26367 26.3086 1.97702 26.3086 2.85699C26.3086 3.73695 27.0207 4.4503 27.8992 4.4503Z" fill="white"/>
<g filter="url(#filter0_d_0_2042)">
<mask id="path-6-inside-1_0_2042" fill="white">
<path d="M6.12109 18.8846C6.12109 18.45 6.47341 18.0977 6.90801 18.0977H48.2209C48.6555 18.0977 49.0078 18.45 49.0078 18.8846V26.3602C49.0078 26.7948 48.6555 27.1472 48.2209 27.1472H6.908C6.4734 27.1472 6.12109 26.7948 6.12109 26.3602V18.8846Z"/>
</mask>
<path d="M6.12109 18.8846C6.12109 18.45 6.47341 18.0977 6.90801 18.0977H48.2209C48.6555 18.0977 49.0078 18.45 49.0078 18.8846V26.3602C49.0078 26.7948 48.6555 27.1472 48.2209 27.1472H6.908C6.4734 27.1472 6.12109 26.7948 6.12109 26.3602V18.8846Z" fill="white"/>
<path d="M6.12109 18.8846C6.12109 18.0154 6.82572 17.3107 7.69492 17.3107H47.434C48.3032 17.3107 49.0078 18.0154 49.0078 18.8846C49.0078 18.8846 48.6555 18.8846 48.2209 18.8846H6.90801C6.47341 18.8846 6.12109 18.8846 6.12109 18.8846ZM6.12109 18.8846M49.0078 27.1472H6.12109H49.0078M49.0078 27.1472M6.12109 27.1472V18.0977V27.1472M6.12109 27.1472M49.0078 18.0977V27.1472V18.0977" fill="#772FBF" mask="url(#path-6-inside-1_0_2042)"/>
</g>
<g filter="url(#filter1_d_0_2042)">
<rect x="6.12109" y="29.1152" width="42.8867" height="12.1971" rx="0.786913" fill="white"/>
</g>
<g filter="url(#filter2_d_0_2042)">
<rect x="6.12109" y="43.2812" width="42.8867" height="12.1971" rx="0.786913" fill="white"/>
</g>
<path d="M7.69141 32.2637H21.0689" stroke="#45305A" stroke-opacity="0.3" stroke-width="0.786913" stroke-linecap="round"/>
<path d="M7.69141 21.2461H21.0689" stroke="#45305A" stroke-opacity="0.3" stroke-width="0.786913" stroke-linecap="round"/>
<path d="M7.69141 24.3945H32.0857" stroke="#45305A" stroke-opacity="0.3" stroke-width="0.786913" stroke-linecap="round"/>
<path d="M7.69141 35.4102H32.0857" stroke="#45305A" stroke-opacity="0.3" stroke-width="0.786913" stroke-linecap="round"/>
<path d="M7.69141 38.5586H39.5614" stroke="#45305A" stroke-opacity="0.3" stroke-width="0.786913" stroke-linecap="round"/>
<path d="M7.69141 47.2148H39.5614" stroke="#45305A" stroke-opacity="0.2" stroke-width="0.786913" stroke-linecap="round"/>
<g opacity="0.6" filter="url(#filter3_f_0_2042)">
<path d="M21.6373 57.4721V58.0398H22.3172V58.244H21.6373V58.9629H21.3847V57.2679H22.4352V57.4721H21.6373ZM23.1584 57.7447C23.2465 57.7447 23.326 57.7593 23.3968 57.7884C23.4684 57.8168 23.529 57.8581 23.5786 57.9124C23.6289 57.9659 23.6675 58.0308 23.6943 58.1071C23.721 58.1827 23.7344 58.2677 23.7344 58.3621C23.7344 58.4565 23.721 58.5419 23.6943 58.6182C23.6675 58.6946 23.6289 58.7595 23.5786 58.813C23.529 58.8665 23.4684 58.9078 23.3968 58.9369C23.326 58.9653 23.2465 58.9794 23.1584 58.9794C23.0694 58.9794 22.9892 58.9653 22.9176 58.9369C22.8468 58.9078 22.7862 58.8665 22.7358 58.813C22.6854 58.7595 22.6465 58.6946 22.6189 58.6182C22.5922 58.5419 22.5788 58.4565 22.5788 58.3621C22.5788 58.2677 22.5922 58.1827 22.6189 58.1071C22.6465 58.0308 22.6854 57.9659 22.7358 57.9124C22.7862 57.8581 22.8468 57.8168 22.9176 57.7884C22.9892 57.7593 23.0694 57.7447 23.1584 57.7447ZM23.1584 58.8C23.2717 58.8 23.3563 58.7618 23.4122 58.6855C23.468 58.6092 23.496 58.5018 23.496 58.3633C23.496 58.2248 23.468 58.1174 23.4122 58.041C23.3563 57.9639 23.2717 57.9253 23.1584 57.9253C23.0435 57.9253 22.9577 57.9639 22.9011 58.041C22.8452 58.1174 22.8172 58.2248 22.8172 58.3633C22.8172 58.5018 22.8452 58.6092 22.9011 58.6855C22.9577 58.7618 23.0435 58.8 23.1584 58.8ZM24.2872 57.9938C24.3258 57.9151 24.3722 57.8533 24.4265 57.8085C24.4808 57.7636 24.5461 57.7412 24.6224 57.7412C24.6484 57.7412 24.6728 57.7444 24.6956 57.7507C24.7192 57.7562 24.7397 57.7648 24.757 57.7766L24.7416 57.9501C24.7361 57.9714 24.7232 57.982 24.7027 57.982C24.6917 57.982 24.6752 57.98 24.6531 57.9761C24.6311 57.9714 24.6075 57.969 24.5823 57.969C24.5453 57.969 24.5127 57.9745 24.4843 57.9855C24.456 57.9958 24.4304 58.0115 24.4076 58.0328C24.3856 58.0532 24.3659 58.0788 24.3486 58.1095C24.3313 58.1394 24.3151 58.1736 24.3002 58.2122V58.9629H24.07V57.7636H24.2022C24.2274 57.7636 24.2443 57.7684 24.253 57.7778C24.2624 57.7865 24.2691 57.8022 24.273 57.825L24.2872 57.9938ZM25.0132 58.9629V57.7636H25.1513C25.1836 57.7636 25.2037 57.779 25.2115 57.8097L25.2281 57.9242C25.2721 57.8714 25.3209 57.8286 25.3744 57.7955C25.4287 57.7617 25.4921 57.7447 25.5645 57.7447C25.6439 57.7447 25.7085 57.7668 25.758 57.8109C25.8076 57.8541 25.8438 57.9131 25.8666 57.9879C25.884 57.9454 25.9064 57.9088 25.9339 57.8781C25.9615 57.8474 25.9922 57.8223 26.026 57.8026C26.0598 57.7829 26.0956 57.7684 26.1334 57.7589C26.172 57.7495 26.2109 57.7447 26.2503 57.7447C26.314 57.7447 26.3707 57.755 26.4202 57.7754C26.4706 57.7951 26.5131 57.8242 26.5477 57.8628C26.5823 57.9013 26.6087 57.949 26.6268 58.0056C26.6449 58.0623 26.6539 58.1268 26.6539 58.1992V58.9629H26.4226V58.1992C26.4226 58.1095 26.4029 58.0418 26.3636 57.9962C26.325 57.9505 26.2684 57.9277 26.1936 57.9277C26.1606 57.9277 26.1291 57.9336 26.0992 57.9454C26.0693 57.9564 26.0429 57.9733 26.0201 57.9962C25.9981 58.019 25.9804 58.0473 25.967 58.0812C25.9544 58.115 25.9481 58.1543 25.9481 58.1992V58.9629H25.7167V58.1992C25.7167 58.1063 25.6982 58.0379 25.6613 57.9938C25.6243 57.9497 25.57 57.9277 25.4984 57.9277C25.4488 57.9277 25.4028 57.9407 25.3603 57.9667C25.3178 57.9926 25.2788 58.028 25.2434 58.0729V58.9629H25.0132ZM28.5125 58.2299C28.5125 58.1842 28.5058 58.1421 28.4924 58.1036C28.4798 58.065 28.4609 58.0316 28.4358 58.0033C28.4106 57.9749 28.3799 57.9529 28.3437 57.9371C28.3075 57.9214 28.2658 57.9135 28.2186 57.9135C28.1218 57.9135 28.0454 57.9415 27.9896 57.9973C27.9345 58.0532 27.8995 58.1307 27.8845 58.2299H28.5125ZM28.7025 58.7917C28.6742 58.8248 28.6415 58.8535 28.6046 58.8779C28.5676 58.9015 28.5282 58.9208 28.4865 58.9357C28.4448 58.9507 28.4015 58.9617 28.3567 58.9688C28.3126 58.9759 28.2689 58.9794 28.2257 58.9794C28.143 58.9794 28.0663 58.9656 27.9955 58.9381C27.9254 58.9098 27.8645 58.8689 27.8125 58.8153C27.7614 58.761 27.7212 58.6942 27.6921 58.6147C27.6638 58.5344 27.6496 58.4423 27.6496 58.3385C27.6496 58.2551 27.6626 58.1776 27.6886 58.1059C27.7146 58.0335 27.7515 57.9706 27.7995 57.9171C27.8483 57.8636 27.9077 57.8215 27.9778 57.7908C28.0478 57.7601 28.1265 57.7447 28.2138 57.7447C28.287 57.7447 28.3543 57.7569 28.4157 57.7813C28.4779 57.8049 28.5314 57.8396 28.5762 57.8852C28.6211 57.9309 28.6561 57.9871 28.6813 58.054C28.7072 58.1209 28.7202 58.1972 28.7202 58.283C28.7202 58.3184 28.7163 58.3424 28.7084 58.355C28.7006 58.3668 28.686 58.3727 28.6648 58.3727H27.8786C27.881 58.4443 27.8912 58.5069 27.9093 58.5604C27.9274 58.6131 27.9522 58.6572 27.9837 58.6926C28.0159 58.728 28.0541 58.7544 28.0982 58.7717C28.1422 58.789 28.1914 58.7976 28.2457 58.7976C28.2969 58.7976 28.3409 58.7917 28.3779 58.7799C28.4157 58.7681 28.448 58.7555 28.4747 58.7422C28.5023 58.728 28.5251 58.715 28.5432 58.7032C28.5621 58.6914 28.5786 58.6855 28.5927 58.6855C28.6116 58.6855 28.6262 58.6926 28.6364 58.7068L28.7025 58.7917ZM29.2623 57.9301C29.2883 57.9025 29.3154 57.8773 29.3438 57.8545C29.3721 57.8317 29.402 57.8124 29.4335 57.7967C29.4657 57.7802 29.5 57.7676 29.5362 57.7589C29.5732 57.7495 29.6125 57.7447 29.6542 57.7447C29.7203 57.7447 29.7781 57.7558 29.8277 57.7778C29.8781 57.7998 29.9202 57.8309 29.954 57.871C29.9879 57.9104 30.0134 57.958 30.0307 58.0139C30.0481 58.0697 30.0567 58.1315 30.0567 58.1992V58.9629H29.8254V58.1992C29.8254 58.1134 29.8057 58.0469 29.7663 57.9997C29.727 57.9517 29.6668 57.9277 29.5857 57.9277C29.5267 57.9277 29.4712 57.9419 29.4193 57.9702C29.3682 57.9977 29.3206 58.0355 29.2765 58.0835V58.9629H29.0463V57.7636H29.1844C29.2167 57.7636 29.2367 57.779 29.2446 57.8097L29.2623 57.9301ZM31.2191 58.054C31.1814 58.0044 31.1405 57.9698 31.0964 57.9501C31.0531 57.9305 31.0043 57.9206 30.95 57.9206C30.8446 57.9206 30.7627 57.9588 30.7045 58.0351C30.6471 58.1107 30.6183 58.2212 30.6183 58.3668C30.6183 58.4431 30.6246 58.5084 30.6372 58.5627C30.6506 58.6163 30.6695 58.6603 30.6939 58.6949C30.7191 58.7288 30.7498 58.754 30.786 58.7705C30.8222 58.7862 30.8631 58.7941 30.9087 58.7941C30.9756 58.7941 31.0334 58.7791 31.0822 58.7492C31.131 58.7193 31.1767 58.6772 31.2191 58.6229V58.054ZM31.4505 57.2207V58.9629H31.3112C31.279 58.9629 31.2589 58.9475 31.251 58.9169L31.231 58.7788C31.1798 58.8393 31.1216 58.8881 31.0563 58.9251C30.9917 58.9613 30.917 58.9794 30.832 58.9794C30.7635 58.9794 30.7014 58.966 30.6455 58.9393C30.5904 58.9125 30.5432 58.8736 30.5038 58.8224C30.4645 58.7705 30.4342 58.7064 30.413 58.63C30.3917 58.5537 30.3811 58.466 30.3811 58.3668C30.3811 58.2779 30.3929 58.1953 30.4165 58.1189C30.4401 58.0426 30.4743 57.9765 30.5192 57.9206C30.564 57.8648 30.6183 57.8211 30.6821 57.7896C30.7458 57.7573 30.8178 57.7412 30.8981 57.7412C30.9705 57.7412 31.0319 57.753 31.0822 57.7766C31.1334 57.8002 31.179 57.8337 31.2191 57.877V57.2207H31.4505Z" fill="#828282"/>
</g>
</g>
<defs>
<filter id="filter0_d_0_2042" x="-17.4863" y="-3.9359" width="90.1015" height="56.2636" filterUnits="userSpaceOnUse" color-interpolation-filters="sRGB">
<feFlood flood-opacity="0" result="BackgroundImageFix"/>
<feColorMatrix in="SourceAlpha" type="matrix" values="0 0 0 0 0 0 0 0 0 0 0 0 0 0 0 0 0 0 127 0" result="hardAlpha"/>
<feOffset dy="1.57383"/>
<feGaussianBlur stdDeviation="11.8037"/>
<feComposite in2="hardAlpha" operator="out"/>
<feColorMatrix type="matrix" values="0 0 0 0 0.0156863 0 0 0 0 0.0235294 0 0 0 0 0.0588235 0 0 0 0.05 0"/>
<feBlend mode="normal" in2="BackgroundImageFix" result="effect1_dropShadow_0_2042"/>
<feBlend mode="normal" in="SourceGraphic" in2="effect1_dropShadow_0_2042" result="shape"/>
</filter>
<filter id="filter1_d_0_2042" x="-17.4863" y="7.08168" width="90.1015" height="59.412" filterUnits="userSpaceOnUse" color-interpolation-filters="sRGB">
<feFlood flood-opacity="0" result="BackgroundImageFix"/>
<feColorMatrix in="SourceAlpha" type="matrix" values="0 0 0 0 0 0 0 0 0 0 0 0 0 0 0 0 0 0 127 0" result="hardAlpha"/>
<feOffset dy="1.57383"/>
<feGaussianBlur stdDeviation="11.8037"/>
<feComposite in2="hardAlpha" operator="out"/>
<feColorMatrix type="matrix" values="0 0 0 0 0.0156863 0 0 0 0 0.0235294 0 0 0 0 0.0588235 0 0 0 0.05 0"/>
<feBlend mode="normal" in2="BackgroundImageFix" result="effect1_dropShadow_0_2042"/>
<feBlend mode="normal" in="SourceGraphic" in2="effect1_dropShadow_0_2042" result="shape"/>
</filter>
<filter id="filter2_d_0_2042" x="-17.4863" y="21.2477" width="90.1015" height="59.412" filterUnits="userSpaceOnUse" color-interpolation-filters="sRGB">
<feFlood flood-opacity="0" result="BackgroundImageFix"/>
<feColorMatrix in="SourceAlpha" type="matrix" values="0 0 0 0 0 0 0 0 0 0 0 0 0 0 0 0 0 0 127 0" result="hardAlpha"/>
<feOffset dy="1.57383"/>
<feGaussianBlur stdDeviation="11.8037"/>
<feComposite in2="hardAlpha" operator="out"/>
<feColorMatrix type="matrix" values="0 0 0 0 0.0156863 0 0 0 0 0.0235294 0 0 0 0 0.0588235 0 0 0 0.05 0"/>
<feBlend mode="normal" in2="BackgroundImageFix" result="effect1_dropShadow_0_2042"/>
<feBlend mode="normal" in="SourceGraphic" in2="effect1_dropShadow_0_2042" result="shape"/>
</filter>
<filter id="filter3_f_0_2042" x="20.9894" y="56.8272" width="10.8533" height="2.54473" filterUnits="userSpaceOnUse" color-interpolation-filters="sRGB">
<feFlood flood-opacity="0" result="BackgroundImageFix"/>
<feBlend mode="normal" in="SourceGraphic" in2="BackgroundImageFix" result="shape"/>
<feGaussianBlur stdDeviation="0.196728" result="effect1_foregroundBlur_0_2042"/>
</filter>
<clipPath id="clip0_0_2042">
<rect width="56" height="71.7852" fill="white"/>
</clipPath>
</defs>
</svg>
