<svg width="20" height="20" viewBox="0 0 20 20" fill="none" xmlns="http://www.w3.org/2000/svg">
<path fill-rule="evenodd" clip-rule="evenodd" d="M6.39297 1.66602H13.618C16.443 1.66602 18.3346 3.64935 18.3346 6.59935V13.4085C18.3346 16.3493 16.443 18.3327 13.618 18.3327H6.39297C3.56797 18.3327 1.66797 16.3493 1.66797 13.4085V6.59935C1.66797 3.64935 3.56797 1.66602 6.39297 1.66602ZM9.5263 12.491L13.4846 8.53268C13.768 8.24935 13.768 7.79102 13.4846 7.49935C13.2013 7.21602 12.7346 7.21602 12.4513 7.49935L9.00963 10.941L7.5513 9.48268C7.26797 9.19935 6.8013 9.19935 6.51797 9.48268C6.23464 9.76602 6.23464 10.2243 6.51797 10.516L8.5013 12.491C8.64297 12.6327 8.8263 12.6993 9.00963 12.6993C9.2013 12.6993 9.38463 12.6327 9.5263 12.491Z" fill="#27AE60"/>
</svg>
