<svg width="20" height="20" viewBox="0 0 20 20" fill="none" xmlns="http://www.w3.org/2000/svg">
<path d="M9.35938 12.4033C9.35938 12.7678 9.6428 13.0565 10.001 13.0566C10.3217 13.0566 10.5935 12.8142 10.6367 12.4932L10.6426 12.4033V7.31641H9.35938V3.86621L8.03516 5.19922C7.78522 5.44916 7.37697 5.44904 7.12695 5.19922C6.89211 4.97195 6.87077 4.61434 7.05664 4.36328L7.11816 4.29102L9.54297 1.85742C9.66796 1.73245 9.82697 1.66602 10.002 1.66602C10.1351 1.66612 10.2684 1.70907 10.376 1.79004L10.4512 1.85742L12.877 4.29102C13.0018 4.41599 13.0684 4.58298 13.0684 4.74121C13.0683 4.90768 13.0017 5.0743 12.877 5.19922C12.6497 5.42643 12.2911 5.4475 12.04 5.26172L11.9678 5.19922L10.6436 3.86621V7.31641H14.626C16.6092 7.31641 18.2394 8.90824 18.3311 10.9111L18.335 11.0889V15.2188C18.3347 17.2365 16.7695 18.8859 14.8086 18.9785L14.6348 18.9824H5.37598C3.3847 18.9822 1.76292 17.3823 1.67188 15.3867L1.66797 15.21V11.0723C1.66797 9.06258 3.23329 7.41294 5.19434 7.32031L5.36816 7.31641H9.35938V12.4033Z" fill="#A7B9D0"/>
</svg>
