<svg width="20" height="20" viewBox="0 0 20 20" fill="none" xmlns="http://www.w3.org/2000/svg">
<path fill-rule="evenodd" clip-rule="evenodd" d="M10.0009 3.33398C11.7245 3.33398 13.3594 3.93199 14.7822 5.03906C16.2048 6.138 17.4162 7.74594 18.2861 9.75781C18.3511 9.91135 18.3511 10.0899 18.2861 10.2354C16.5462 14.2595 13.448 16.667 10.0009 16.667H9.99312C6.55419 16.667 3.45661 14.2594 1.71675 10.2354C1.65171 10.0899 1.65171 9.91135 1.71675 9.75781C3.45661 5.73379 6.5542 3.33399 9.99312 3.33398H10.0009ZM10.0009 6.76855C8.20433 6.76873 6.74898 8.21523 6.74898 10.001C6.74915 11.7785 8.20444 13.2244 10.0009 13.2246C11.7894 13.2246 13.2449 11.7786 13.2451 10.001C13.2451 8.21512 11.7895 6.76855 10.0009 6.76855ZM10.0019 7.97852C11.1157 7.97852 12.0263 8.88387 12.0263 9.99902C12.0262 11.106 11.1157 12.0107 10.0019 12.0107C8.88015 12.0106 7.96976 11.1059 7.96968 9.99902C7.96968 9.86165 7.9863 9.73183 8.01069 9.60254H8.05073C8.95317 9.60254 9.6852 8.89181 9.71773 8.00293C9.80704 7.98679 9.90447 7.97853 10.0019 7.97852Z" fill="#A7B9D0"/>
</svg>
