<svg width="608" height="768" viewBox="0 0 608 768" fill="none" xmlns="http://www.w3.org/2000/svg">
<mask id="path-1-inside-1_229_502" fill="white">
<path d="M0 177.633C0 142.286 28.6538 113.633 64 113.633H543.347C578.693 113.633 607.347 142.286 607.347 177.633V704C607.347 739.346 578.693 768 543.347 768H63.9999C28.6537 768 0 739.346 0 704V177.633Z"/>
</mask>
<path d="M0 177.633C0 142.286 28.6538 113.633 64 113.633H543.347C578.693 113.633 607.347 142.286 607.347 177.633V704C607.347 739.346 578.693 768 543.347 768H63.9999C28.6537 768 0 739.346 0 704V177.633Z" fill="#E9E2F0"/>
<path d="M0 113.633H607.347H0ZM607.347 768H0H607.347ZM0 768V113.633V768ZM543.347 113.633C583.111 113.633 615.347 145.868 615.347 185.633V696C615.347 735.765 583.111 768 543.347 768C574.275 768 599.347 739.346 599.347 704V177.633C599.347 142.286 574.275 113.633 543.347 113.633Z" fill="#CDB7E3" mask="url(#path-1-inside-1_229_502)"/>
<path d="M303.783 67.6809C322.441 67.6809 337.567 52.53 337.567 33.8405C337.567 15.1509 322.441 0 303.783 0C285.125 0 270 15.1509 270 33.8405C270 52.53 285.125 67.6809 303.783 67.6809Z" fill="#772FC0"/>
<path d="M460.008 166.038H149.202C145.172 166.033 141.308 164.427 138.458 161.572C135.608 158.718 134.005 154.847 134 150.809V76.3604C134.005 72.323 135.608 68.4523 138.458 65.5975C141.308 62.7426 145.172 61.1368 149.202 61.1322H460.008C464.039 61.1368 467.903 62.7426 470.753 65.5975C473.603 68.4523 475.206 72.323 475.211 76.3604V150.809C475.206 154.847 473.603 158.718 470.753 161.572C467.903 164.427 464.039 166.033 460.008 166.038Z" fill="#772FC0"/>
<path d="M303.551 54.8572C315.453 54.8572 325.102 45.2084 325.102 33.3061C325.102 21.4038 315.453 11.7551 303.551 11.7551C291.649 11.7551 282 21.4038 282 33.3061C282 45.2084 291.649 54.8572 303.551 54.8572Z" fill="white"/>
<path d="M251.754 284.041C246.991 284.041 242.423 285.933 239.055 289.301C235.687 292.669 233.795 297.237 233.795 302C233.795 306.763 235.687 311.331 239.055 314.699C242.423 318.067 246.991 319.959 251.754 319.959H503.183C507.946 319.959 512.514 318.067 515.882 314.699C519.25 311.331 521.142 306.763 521.142 302C521.142 297.237 519.25 292.669 515.882 289.301C512.514 285.933 507.946 284.041 503.183 284.041H251.754Z" fill="#8241C5"/>
<path d="M144 248.776C114.439 248.776 90.1226 273.092 90.1226 302.653C90.1226 332.214 114.439 356.531 144 356.531C173.561 356.531 197.878 332.214 197.878 302.653C197.878 273.092 173.561 248.776 144 248.776Z" fill="#772FC0" fill-opacity="0.9"/>
<path d="M143.02 272.286C126.896 272.286 113.632 285.549 113.632 301.674C113.632 317.798 126.896 331.061 143.02 331.061C159.144 331.061 172.408 317.798 172.408 301.674C172.408 285.549 159.144 272.286 143.02 272.286Z" fill="white" fill-opacity="0.9"/>
<path d="M251.754 454.49C246.991 454.49 242.423 456.382 239.055 459.75C235.687 463.118 233.795 467.686 233.795 472.449C233.795 477.212 235.687 481.78 239.055 485.148C242.423 488.516 246.991 490.408 251.754 490.408H503.183C507.946 490.408 512.514 488.516 515.882 485.148C519.25 481.78 521.142 477.212 521.142 472.449C521.142 467.686 519.25 463.118 515.882 459.75C512.514 456.382 507.946 454.49 503.183 454.49H251.754Z" fill="#8241C5"/>
<path d="M144 419.224C114.439 419.224 90.1226 443.541 90.1226 473.102C90.1226 502.663 114.439 526.98 144 526.98C173.561 526.98 197.878 502.663 197.878 473.102C197.878 443.541 173.561 419.224 144 419.224Z" fill="#772FC0" fill-opacity="0.9"/>
<path d="M143.02 442.735C126.896 442.735 113.632 455.998 113.632 472.122C113.632 488.247 126.896 501.51 143.02 501.51C159.144 501.51 172.408 488.247 172.408 472.122C172.408 455.998 159.144 442.735 143.02 442.735Z" fill="white" fill-opacity="0.9"/>
<path d="M251.754 627.551C246.991 627.551 242.423 629.443 239.055 632.811C235.687 636.179 233.795 640.747 233.795 645.51C233.795 650.273 235.687 654.841 239.055 658.209C242.423 661.577 246.991 663.469 251.754 663.469H503.183C507.946 663.469 512.514 661.577 515.882 658.209C519.25 654.841 521.142 650.273 521.142 645.51C521.142 640.747 519.25 636.179 515.882 632.811C512.514 629.443 507.946 627.551 503.183 627.551H251.754Z" fill="#8241C5"/>
<path d="M144 589.673C114.439 589.673 90.1226 613.99 90.1226 643.551C90.1226 673.112 114.439 697.429 144 697.429C173.561 697.429 197.878 673.112 197.878 643.551C197.878 613.99 173.561 589.673 144 589.673Z" fill="#772FC0" fill-opacity="0.9"/>
<path d="M143.02 613.184C126.896 613.184 113.632 626.447 113.632 642.571C113.632 658.696 126.896 671.959 143.02 671.959C159.144 671.959 172.408 658.696 172.408 642.571C172.408 626.447 159.144 613.184 143.02 613.184Z" fill="white" fill-opacity="0.9"/>
</svg>
