<svg width="225" height="220" viewBox="0 0 225 220" fill="none" xmlns="http://www.w3.org/2000/svg">
<g clip-path="url(#clip0_0_622)">
<path d="M142.84 49.4778H82.2127C80.8311 49.4795 79.5066 50.03 78.5297 51.0086C77.5527 51.9872 77.0031 53.314 77.0015 54.6979V189.672L76.3066 189.884L61.4337 194.447C60.7288 194.662 59.9675 194.588 59.3168 194.242C58.6661 193.895 58.1792 193.304 57.9631 192.599L13.7228 47.8457C13.5075 47.1396 13.5809 46.3768 13.9268 45.7249C14.2728 45.073 14.8629 44.5854 15.5676 44.3691L38.4868 37.3394L104.93 16.9672L127.849 9.93746C128.198 9.82993 128.565 9.79236 128.928 9.82688C129.291 9.86141 129.644 9.96737 129.967 10.1387C130.289 10.31 130.575 10.5433 130.807 10.8253C131.039 11.1072 131.213 11.4323 131.32 11.7819L142.629 48.7818L142.84 49.4778Z" fill="#F2F2F2"/>
<path d="M156.067 48.7804L142.438 4.18696C142.211 3.44395 141.84 2.75298 141.347 2.15353C140.853 1.55408 140.247 1.05791 139.562 0.693358C138.877 0.328808 138.127 0.103023 137.355 0.0289159C136.583 -0.0451914 135.804 0.0338304 135.062 0.261458L102.839 10.1413L36.3991 30.5171L4.17618 40.4004C2.67927 40.8609 1.42589 41.8974 0.691146 43.2826C-0.0435927 44.6677 -0.199662 46.2883 0.257203 47.7886L46.8389 200.191C47.2101 201.402 47.9589 202.462 48.9756 203.215C49.9923 203.969 51.2233 204.376 52.488 204.377C53.0734 204.377 53.6554 204.289 54.2146 204.116L76.3034 197.344L76.9983 197.128V196.401L76.3034 196.613L54.0097 203.451C52.6884 203.855 51.2613 203.717 50.0414 203.068C48.8215 202.419 47.9085 201.311 47.5026 199.989L0.924387 47.5833C0.723264 46.9279 0.653167 46.2393 0.718108 45.5568C0.783049 44.8743 0.981747 44.2113 1.30284 43.6059C1.62393 43.0004 2.0611 42.4643 2.58931 42.0284C3.11753 41.5924 3.7264 41.265 4.38109 41.0651L36.604 31.1818L103.044 10.8095L135.267 0.926155C135.764 0.774355 136.28 0.696955 136.799 0.69647C137.913 0.698976 138.997 1.0588 139.893 1.72323C140.788 2.38767 141.447 3.3218 141.774 4.38881L155.341 48.7804L155.556 49.4764H156.279L156.067 48.7804Z" fill="#3F3D56"/>
<path d="M42.6232 44.482C41.9536 44.4815 41.3017 44.2661 40.7633 43.8673C40.2249 43.4685 39.8282 42.9074 39.6315 42.2663L35.1566 27.6251C35.0363 27.2318 34.9946 26.8186 35.0338 26.4092C35.073 25.9998 35.1923 25.6021 35.3849 25.2388C35.5776 24.8756 35.8398 24.5539 36.1565 24.2922C36.4733 24.0304 36.8384 23.8338 37.2311 23.7134L98.3553 4.96854C99.1483 4.72616 100.005 4.80883 100.737 5.19838C101.469 5.58794 102.017 6.25256 102.261 7.04638L106.735 21.6878C106.977 22.482 106.895 23.34 106.506 24.0733C106.117 24.8067 105.453 25.3556 104.661 25.5996L43.5367 44.3445C43.2407 44.4355 42.9328 44.4818 42.6232 44.482Z" fill="#772FC0"/>
<path d="M66.0616 15.6448C69.8991 15.6448 73.01 12.5287 73.01 8.68472C73.01 4.84076 69.8991 1.72461 66.0616 1.72461C62.2242 1.72461 59.1133 4.84076 59.1133 8.68472C59.1133 12.5287 62.2242 15.6448 66.0616 15.6448Z" fill="#772FC0"/>
<path d="M66.064 13.0921C68.494 13.0921 70.4639 11.1188 70.4639 8.6847C70.4639 6.25059 68.494 4.27734 66.064 4.27734C63.634 4.27734 61.6641 6.25059 61.6641 8.6847C61.6641 11.1188 63.634 13.0921 66.064 13.0921Z" fill="white"/>
<path d="M209.364 202.601H91.9374C91.1545 202.6 90.4039 202.288 89.8503 201.733C89.2967 201.179 88.9853 200.427 88.9844 199.642V58.7002C88.9852 57.916 89.2967 57.1641 89.8503 56.6095C90.4039 56.055 91.1545 55.7431 91.9374 55.7422H209.364C210.147 55.7431 210.898 56.055 211.452 56.6096C212.005 57.1641 212.317 57.916 212.317 58.7002V199.642C212.317 200.427 212.005 201.179 211.452 201.733C210.898 202.288 210.147 202.6 209.364 202.601Z" fill="#E6E6E6"/>
<path d="M155.342 48.7812H82.2108C80.6451 48.7835 79.1441 49.4075 78.037 50.5165C76.9299 51.6255 76.3069 53.129 76.3047 54.6973V196.614L76.9995 196.402V54.6973C77.0012 53.3134 77.5508 51.9866 78.5277 51.008C79.5047 50.0295 80.8292 49.4789 82.2108 49.4773H155.558L155.342 48.7812ZM219.093 48.7812H82.2108C80.6451 48.7835 79.1441 49.4075 78.037 50.5165C76.9299 51.6255 76.3069 53.129 76.3047 54.6973V214.084C76.3069 215.652 76.9299 217.156 78.037 218.265C79.1441 219.374 80.6451 219.998 82.2108 220H219.093C220.659 219.998 222.16 219.374 223.267 218.265C224.374 217.156 224.997 215.652 224.999 214.084V54.6973C224.997 53.129 224.374 51.6255 223.267 50.5165C222.16 49.4075 220.659 48.7835 219.093 48.7812ZM224.304 214.084C224.303 215.468 223.753 216.795 222.776 217.773C221.799 218.752 220.475 219.302 219.093 219.304H82.2108C80.8292 219.302 79.5047 218.752 78.5277 217.773C77.5508 216.795 77.0012 215.468 76.9995 214.084V54.6973C77.0012 53.3134 77.5508 51.9866 78.5277 51.008C79.5047 50.0295 80.8292 49.4789 82.2108 49.4773H219.093C220.475 49.4789 221.799 50.0295 222.776 51.008C223.753 51.9866 224.303 53.3134 224.304 54.6973V214.084Z" fill="#3F3D56"/>
<path d="M182.614 64.0939H118.689C117.86 64.093 117.066 63.7627 116.479 63.1755C115.893 62.5884 115.563 61.7923 115.562 60.9619V45.6496C115.563 44.8192 115.893 44.0231 116.479 43.436C117.066 42.8488 117.86 42.5185 118.689 42.5176H182.614C183.443 42.5185 184.238 42.8488 184.824 43.436C185.41 44.0231 185.74 44.8192 185.741 45.6496V60.9619C185.74 61.7923 185.41 62.5884 184.824 63.1755C184.238 63.7627 183.443 64.093 182.614 64.0939Z" fill="#772FC0"/>
<path d="M150.651 43.5608C154.489 43.5608 157.6 40.4447 157.6 36.6007C157.6 32.7568 154.489 29.6406 150.651 29.6406C146.814 29.6406 143.703 32.7568 143.703 36.6007C143.703 40.4447 146.814 43.5608 150.651 43.5608Z" fill="#772FC0"/>
<path d="M150.654 40.84C152.991 40.84 154.886 38.942 154.886 36.6007C154.886 34.2594 152.991 32.3613 150.654 32.3613C148.317 32.3613 146.422 34.2594 146.422 36.6007C146.422 38.942 148.317 40.84 150.654 40.84Z" fill="white"/>
</g>
<defs>
<clipPath id="clip0_0_622">
<rect width="225" height="220" fill="white"/>
</clipPath>
</defs>
</svg>
