<svg width="28" height="28" viewBox="0 0 28 28" fill="none" xmlns="http://www.w3.org/2000/svg">
<path d="M20.0466 11.0741L20.401 11.7829C20.9054 12.7931 20.4193 14.0406 19.1132 14.4037C19.0967 14.4092 17.2877 14.8948 16.7383 13.2492L16.2088 11.6586L17.7156 10.151L13.9973 4.57422L10.2789 10.151L11.7858 11.6586L11.2562 13.2492C10.6502 15.0649 8.15623 14.6374 7.5681 13.357C7.33597 12.8529 7.34558 12.2795 7.59351 11.7829L7.94722 11.0748L2 8.95189L4.85454 19.9078L6.26111 21.3143H21.7334L23.14 19.9078L26 8.95259L20.0466 11.0741Z" fill="#FED843"/>
<path d="M23.1388 19.9078L25.9988 8.95259L20.0454 11.0741L20.3998 11.7829C20.9043 12.7931 20.4181 14.0406 19.1121 14.4037C19.0956 14.4092 17.2865 14.8948 16.7371 13.2492L16.2076 11.6586L17.7145 10.151L13.9961 4.57422V21.3143H21.7322L23.1388 19.9078Z" fill="#FABE2C"/>
<path d="M13.9982 19.9082H4.85547V23.4246H23.1409V19.9082H13.9982Z" fill="#FABE2C"/>
<path d="M13.9961 19.9082H23.1388V23.4246H13.9961V19.9082Z" fill="#FF9100"/>
<path d="M10.4766 19.9065L13.9924 16.3906L17.5084 19.9065L13.9924 23.4225L10.4766 19.9065Z" fill="#FABE2C"/>
<path d="M13.9961 16.3906V23.4235L17.5125 19.9071L13.9961 16.3906Z" fill="#FF9100"/>
</svg>
