<svg width="375" height="310" viewBox="0 0 375 310" fill="none" xmlns="http://www.w3.org/2000/svg">
<g filter="url(#filter0_d_0_326)">
<path d="M316.334 244.503C316.334 244.503 341.388 251.327 353.723 220.407C369.724 180.293 347.266 142.187 308.527 139.444C252.652 135.485 283.618 33.0198 195.449 60.8214C170.656 68.6389 116.734 28.2819 84.9899 96.6612C79.5919 108.287 63.4568 107.718 41.9582 127.553C4.03697 162.542 17.6877 244.874 49.64 245.248C81.5903 245.623 316.334 244.503 316.334 244.503Z" fill="#F9F8FC"/>
</g>
<path d="M35.1016 245.258C35.1016 245.258 36.5574 236.531 55.1244 234.183C73.6936 231.834 90.959 213.009 121.58 215.741C152.201 218.472 177.612 235.618 212.468 230.364C247.325 225.111 269.152 231.808 276.97 237.087C284.789 242.369 317.308 235.582 319.698 245.258H35.1016Z" fill="#9C5ADE"/>
<path d="M105.398 36.2255C105.398 36.2255 86.133 35.284 96.3519 94.0013C96.3519 94.0013 103.228 113.933 94.5478 126.78H222.317V36.2255H105.398Z" fill="#7B1ED9"/>
<path d="M118.523 188.88C118.523 188.88 109.596 178.467 117.972 171.852C117.972 171.852 124.091 168.148 129.078 168.448C129.078 168.448 122.009 180.301 124.295 181.481C126.581 182.66 131.22 167.705 131.22 167.705C131.22 167.705 145.142 166.355 149.621 168.509C149.621 168.509 137.719 178.248 140.226 178.829C142.732 179.408 155.587 169.849 155.587 169.849C155.587 169.849 168.546 172.054 167.855 179.959C167.165 187.863 162.7 190.303 160.736 190.095C158.774 189.884 147.294 185.502 147.045 187.11C146.796 188.718 153.704 193.972 158.544 194.219C158.544 194.219 149.408 204.294 143.336 201.386C137.264 198.479 136.745 193.869 132.961 192.142C129.177 190.412 125.945 190.416 127.508 192.18C129.072 193.944 135.921 195.656 138.086 199.485C140.25 203.314 142.192 205.896 135.911 204.95C129.628 204.004 119.418 199.408 118.97 194.146C118.523 188.88 118.523 188.88 118.523 188.88Z" fill="#6818B9"/>
<path d="M161.486 180.171C161.486 180.171 126.292 178.814 118.519 188.879C118.519 188.879 116.8 194.028 111.512 198.715L110.688 200.963C110.688 200.963 116.786 194.532 118.969 194.143C118.969 194.143 115.555 181.673 161.486 180.171Z" fill="#6818B9"/>
<path d="M111.512 198.716C111.512 198.716 103.958 204.302 103.434 214.284L104.804 214.408C104.804 214.408 107.218 204.086 111.577 200.05C115.938 196.013 111.512 198.716 111.512 198.716Z" fill="#6818B9"/>
<path d="M87.3141 175.784C87.3141 175.784 101.514 167.833 94.8866 157.041C94.8866 157.041 89.5858 150.414 83.9065 148.711C83.9065 148.711 86.9355 164.804 83.9065 165.182C80.8775 165.561 81.823 147.008 81.823 147.008C81.823 147.008 66.8663 139.815 60.9966 140.381C60.9966 140.381 70.2739 156.095 67.2449 155.717C64.2159 155.338 53.8027 139.436 53.8027 139.436C53.8027 139.436 38.4674 136.595 36.0073 145.684C33.5453 154.771 37.5218 159.315 39.7936 159.884C42.0653 160.451 56.6434 160.262 56.2648 162.155C55.8862 164.049 46.0419 167.078 40.5508 165.375C40.5508 165.375 46.6088 180.331 54.56 179.574C62.5111 178.817 64.9732 173.895 69.8953 173.516C74.8174 173.138 78.4154 174.462 75.9533 175.788C73.4912 177.112 65.1615 176.223 61.1869 179.603C57.2104 182.982 53.9931 185.065 61.3752 186.58C68.7574 188.094 82.0113 187.149 84.6617 181.467C87.3141 175.784 87.3141 175.784 87.3141 175.784Z" fill="#9C5ADE"/>
<path d="M43.0117 148.523C43.0117 148.523 82.7694 161.397 87.3129 175.786C87.3129 175.786 87.1226 182.223 91.0991 189.607V192.448C91.0991 192.448 86.9343 182.792 84.6625 181.468C84.6625 181.466 93.5612 168.969 43.0117 148.523Z" fill="#9C5ADE"/>
<path d="M91.0989 189.605C91.0989 189.605 97.2298 198.914 93.7351 210.249L92.1578 209.826C92.1578 209.826 93.6885 197.343 90.4813 191.065C87.2721 184.786 91.0989 189.605 91.0989 189.605Z" fill="#9C5ADE"/>
<path d="M109.902 164.819C109.902 164.819 91.1855 154.337 99.9202 140.113C99.9202 140.113 106.908 131.378 114.395 129.133C114.395 129.133 110.402 150.346 114.395 150.844C118.388 151.344 117.141 126.885 117.141 126.885C117.141 126.885 136.855 117.402 144.592 118.151C144.592 118.151 132.362 138.864 136.357 138.366C140.35 137.866 154.076 116.904 154.076 116.904C154.076 116.904 174.291 113.16 177.534 125.138C180.778 137.116 175.538 143.106 172.543 143.855C169.549 144.604 150.332 144.355 150.832 146.849C151.33 149.344 164.309 153.339 171.545 151.091C171.545 151.091 163.56 170.806 153.078 169.808C142.595 168.81 139.352 162.32 132.863 161.822C126.373 161.322 121.631 163.069 124.877 164.817C128.121 166.564 139.103 165.39 144.343 169.844C149.583 174.299 153.827 177.044 144.094 179.041C134.361 181.037 116.891 179.79 113.397 172.302C109.902 164.815 109.902 164.819 109.902 164.819Z" fill="#52089E"/>
<path d="M168.298 128.883C168.298 128.883 115.89 145.852 109.901 164.82C109.901 164.82 110.15 173.305 104.91 183.038V186.782C104.91 186.782 110.401 174.055 113.396 172.307C113.394 172.307 101.665 155.836 168.298 128.883Z" fill="#9C5ADE"/>
<path d="M104.91 183.039C104.91 183.039 96.8273 195.313 101.436 210.252L103.515 209.693C103.515 209.693 101.496 193.238 105.726 184.961C109.952 176.686 104.91 183.039 104.91 183.039Z" fill="#9C5ADE"/>
<path d="M109.273 242.648C129.523 242.648 145.937 226.234 145.937 205.984H72.6094C72.6094 226.234 89.0239 242.648 109.273 242.648Z" fill="#6818B9"/>
<path d="M118.296 242.369C116.803 242.555 115.285 242.648 113.74 242.648C93.4906 242.648 77.0781 226.232 77.0781 205.984H86.1874C86.1874 224.691 100.197 240.125 118.296 242.369Z" fill="#9C5ADE"/>
<path d="M146.442 244.513H72.1016C72.1016 242.015 74.1263 239.99 76.6248 239.99H141.918C144.417 239.99 146.442 242.015 146.442 244.513Z" fill="#6818B9"/>
<path d="M146.769 205.984H71.4023V207.108H146.769V205.984Z" fill="#9C5ADE"/>
<path d="M267.915 207.775C267.915 207.775 261.493 195.657 271.117 191.041C271.117 191.041 277.897 188.771 282.7 190.158C282.7 190.158 273.202 200.17 275.174 201.822C277.146 203.475 284.954 189.903 284.954 189.903C284.954 189.903 298.833 191.642 302.731 194.726C302.731 194.726 288.981 201.616 291.299 202.731C293.617 203.847 308.258 197.342 308.258 197.342C308.258 197.342 320.417 202.337 318.007 209.897C315.598 217.457 310.706 218.858 308.837 218.223C306.968 217.587 296.731 210.792 296.134 212.306C295.537 213.821 301.125 220.464 305.792 221.766C305.792 221.766 294.668 229.59 289.384 225.421C284.099 221.252 284.605 216.641 281.291 214.125C277.978 211.608 274.824 210.903 275.962 212.967C277.1 215.03 283.407 218.204 284.676 222.414C285.948 226.623 287.276 229.569 281.354 227.269C275.433 224.969 266.48 218.243 267.199 213.009C267.915 207.775 267.915 207.775 267.915 207.775Z" fill="#6818B9"/>
<path d="M311.75 208.71C311.75 208.71 277.712 199.662 267.919 207.775C267.919 207.775 265.112 212.42 258.923 215.833L257.625 217.844C257.625 217.844 264.987 212.91 267.2 213.009C267.202 213.009 266.609 200.095 311.75 208.71Z" fill="#6818B9"/>
<path d="M258.921 215.832C258.921 215.832 250.324 219.625 247.621 229.248L248.931 229.669C248.931 229.669 253.55 220.129 258.69 217.149C263.833 214.168 258.921 215.832 258.921 215.832Z" fill="#6818B9"/>
<path d="M247.687 178.176C247.687 178.176 231.655 169.815 238.657 157.611C238.657 157.611 244.325 150.076 250.576 147.996C250.576 147.996 247.745 165.969 251.121 166.289C254.498 166.61 252.832 146.035 252.832 146.035C252.832 146.035 269.206 137.549 275.742 137.986C275.742 137.986 265.96 155.746 269.312 155.224C272.664 154.703 283.702 136.696 283.702 136.696C283.702 136.696 300.639 133.035 303.673 143.047C306.708 153.058 302.443 158.236 299.937 158.941C297.434 159.647 281.236 159.918 281.719 162.009C282.202 164.1 293.235 167.138 299.277 165.064C299.277 165.064 293.043 181.874 284.187 181.298C275.331 180.719 272.435 175.335 266.955 175.077C261.475 174.819 257.524 176.41 260.302 177.801C263.079 179.192 272.302 177.925 276.829 181.549C281.357 185.17 285.001 187.377 276.85 189.304C268.701 191.23 253.95 190.618 250.818 184.397C247.687 178.176 247.687 178.176 247.687 178.176Z" fill="#DFC9F5"/>
<path d="M295.985 146.434C295.985 146.434 252.256 162.046 247.685 178.177C247.685 178.177 248.109 185.32 243.938 193.651L244.031 196.805C244.031 196.805 248.337 185.944 250.817 184.398C250.817 184.396 240.521 170.813 295.985 146.434Z" fill="#CFB4EA"/>
<path d="M243.939 193.652C243.939 193.652 237.439 204.195 241.695 216.666L243.433 216.144C243.433 216.144 241.32 202.33 244.673 195.251C248.029 188.172 243.939 193.652 243.939 193.652Z" fill="#CFB4EA"/>
<path d="M246.894 70.9805H113.5V244.944H246.894V70.9805Z" fill="#6818B9"/>
<path d="M249.013 70.9805H117.863V244.944H249.013V70.9805Z" fill="white"/>
<path d="M351.753 244.804H325.324C323.909 243.604 326.304 240.874 328.809 240.692C329.896 240.609 331.271 240.838 332.842 241.17C333.207 236.339 335.282 214.624 343.109 215.496C351.911 216.474 343.11 225.059 340.621 230.143C338.779 233.907 336.833 239.307 335.946 241.856C336.661 242.01 337.4 242.162 338.155 242.302C339.321 238.72 343.662 226.673 349.182 227.373C355.663 228.195 353.057 233.026 348.465 235.893C345.096 238.003 340.957 241 338.991 242.448C340.658 242.719 342.397 242.903 344.16 242.861C348.688 242.753 350.897 244.088 351.753 244.804Z" fill="#955DCE"/>
<path d="M249.014 70.9752C249.012 70.9772 249.012 70.9772 249.014 70.9752L117.862 70.9772C118.587 61.0601 117.493 53.8581 115.742 48.6788C112.379 38.7212 106.582 36.2227 106.582 36.2227H230.271C240.828 36.2227 249.014 42.5824 251.241 51.0235C251.324 51.3413 251.401 51.6572 251.468 51.9731C253.584 61.6331 249.101 70.799 249.014 70.9752Z" fill="white"/>
<path d="M249.014 70.9761C249.012 70.9781 249.012 70.9781 249.014 70.9761L117.862 70.9781C118.587 61.0609 117.494 53.859 115.742 48.6797C129.146 51.1337 162.341 56.3635 197.873 55.4828C220.86 54.9118 239.026 53.375 251.47 51.9739C253.584 61.6339 249.101 70.7999 249.014 70.9761Z" fill="#833EC9"/>
<path d="M229.792 188.221H133.174C132.181 188.221 131.371 187.461 131.371 186.529V185.661C131.371 184.729 132.184 183.969 133.174 183.969H229.792C230.785 183.969 231.595 184.732 231.595 185.661V186.529C231.595 187.458 230.783 188.221 229.792 188.221Z" fill="#8C44D5"/>
<path d="M192.312 195.104H132.792C132.011 195.104 131.371 194.531 131.371 193.832V192.327C131.371 191.628 132.011 191.055 132.792 191.055H192.312C193.092 191.055 193.733 191.628 193.733 192.327V193.832C193.733 194.534 193.095 195.104 192.312 195.104Z" fill="#8C44D5"/>
<path d="M206.266 82.5325H162.938C162.197 82.5325 161.59 81.9251 161.59 81.184V80.0907C161.59 79.3496 162.197 78.7422 162.938 78.7422H206.266C207.007 78.7422 207.614 79.3496 207.614 80.0907V81.184C207.614 81.9271 207.009 82.5325 206.266 82.5325Z" fill="#9C5ADE"/>
<path d="M217.562 88.3762H151.639C150.729 88.3762 149.984 87.6311 149.984 86.722V86.2402C149.984 85.331 150.729 84.5859 151.639 84.5859H217.562C218.471 84.5859 219.216 85.331 219.216 86.2402V86.722C219.216 87.6332 218.473 88.3762 217.562 88.3762Z" fill="#9C5ADE"/>
<path d="M71.4023 233.124C71.4023 233.124 58.0998 199.059 48.7699 204.484C39.4379 209.908 71.4023 233.124 71.4023 233.124Z" fill="#9C5ADE"/>
<path d="M64.8216 233.125C64.8216 233.125 47.2469 217.937 39.2189 220.757C31.1908 223.578 64.8216 233.125 64.8216 233.125Z" fill="#9C5ADE"/>
<path d="M255.133 231.246C255.133 231.246 259.182 217.164 263.934 218.826C268.686 220.488 255.133 231.246 255.133 231.246Z" fill="#9C5ADE"/>
<path d="M258.828 230.478C258.828 230.478 269.166 223.691 271.438 225.789C273.712 227.887 258.828 230.478 258.828 230.478Z" fill="#9C5ADE"/>
<path d="M229.604 204.216H132.553C131.902 204.216 131.371 203.761 131.371 203.204C131.371 202.646 131.902 202.191 132.553 202.191H229.604C230.254 202.191 230.786 202.646 230.786 203.204C230.786 203.761 230.254 204.216 229.604 204.216Z" fill="#8C44D5"/>
<path d="M229.604 208.064H132.553C131.902 208.064 131.371 207.609 131.371 207.051C131.371 206.494 131.902 206.039 132.553 206.039H229.604C230.254 206.039 230.786 206.494 230.786 207.051C230.786 207.609 230.254 208.064 229.604 208.064Z" fill="#8C44D5"/>
<path d="M229.604 212.517H132.553C131.902 212.517 131.371 212.062 131.371 211.505C131.371 210.947 131.902 210.492 132.553 210.492H229.604C230.254 210.492 230.786 210.947 230.786 211.505C230.786 212.062 230.254 212.517 229.604 212.517Z" fill="#8C44D5"/>
<path d="M216.927 216.769H132.473C131.866 216.769 131.371 216.343 131.371 215.824V215.689C131.371 215.168 131.869 214.744 132.473 214.744H216.927C217.535 214.744 218.03 215.17 218.03 215.689V215.824C218.032 216.343 217.535 216.769 216.927 216.769Z" fill="#8C44D5"/>
<path d="M354.251 245.368H25.2645C25.0701 245.368 24.9102 245.208 24.9102 245.014V244.868C24.9102 244.674 25.0701 244.514 25.2645 244.514H354.251C354.446 244.514 354.606 244.674 354.606 244.868V245.014C354.606 245.21 354.446 245.368 354.251 245.368Z" fill="#5D07B4"/>
<rect x="131" y="119.223" width="84" height="11" rx="1.82226" fill="#8C44D5"/>
<rect x="220" y="119.223" width="13" height="11" rx="1.82226" fill="#8C44D5"/>
<rect x="131" y="136.223" width="84.2289" height="10.3261" rx="1.61979" fill="#8C44D5"/>
<rect x="220.492" y="136.223" width="12.5533" height="10.3261" rx="1.82226" fill="#8C44D5"/>
<rect x="131" y="100.367" width="84" height="12" rx="1.82226" fill="#8C44D5"/>
<rect x="220" y="100.367" width="13" height="12" rx="1.82226" fill="#8C44D5"/>
<defs>
<filter id="filter0_d_0_326" x="-41" y="0" width="459.938" height="309.324" filterUnits="userSpaceOnUse" color-interpolation-filters="sRGB">
<feFlood flood-opacity="0" result="BackgroundImageFix"/>
<feColorMatrix in="SourceAlpha" type="matrix" values="0 0 0 0 0 0 0 0 0 0 0 0 0 0 0 0 0 0 127 0" result="hardAlpha"/>
<feOffset dy="4"/>
<feGaussianBlur stdDeviation="30"/>
<feComposite in2="hardAlpha" operator="out"/>
<feColorMatrix type="matrix" values="0 0 0 0 0.0156863 0 0 0 0 0.0235294 0 0 0 0 0.0588235 0 0 0 0.05 0"/>
<feBlend mode="normal" in2="BackgroundImageFix" result="effect1_dropShadow_0_326"/>
<feBlend mode="normal" in="SourceGraphic" in2="effect1_dropShadow_0_326" result="shape"/>
</filter>
</defs>
</svg>
