<svg width="24" height="24" viewBox="0 0 24 24" fill="none" xmlns="http://www.w3.org/2000/svg">
<g clip-path="url(#clip0_0_320)">
<path d="M23.0284 12.2242C23.0284 11.2409 22.95 10.5234 22.7803 9.7793H11.75V14.2173H18.2246C18.0941 15.3202 17.3892 16.9811 15.8227 18.0972L15.8008 18.2458L19.2883 20.996L19.53 21.0205C21.749 18.9344 23.0284 15.8649 23.0284 12.2242Z" fill="#4285F4"/>
<path d="M11.7491 23.9178C14.9211 23.9178 17.584 22.8548 19.5291 21.0211L15.8218 18.0978C14.8297 18.8021 13.4982 19.2937 11.7491 19.2937C8.64233 19.2937 6.00551 17.2076 5.06556 14.3242L4.92778 14.3361L1.30133 17.193L1.25391 17.3272C3.18583 21.2337 7.15415 23.9178 11.7491 23.9178Z" fill="#34A853"/>
<path d="M5.06477 14.3248C4.81675 13.5807 4.67322 12.7834 4.67322 11.9596C4.67322 11.1357 4.81675 10.3385 5.05172 9.59439L5.04515 9.43592L1.37326 6.5332L1.25312 6.59137C0.456883 8.21247 0 10.0329 0 11.9596C0 13.8863 0.456883 15.7066 1.25312 17.3277L5.06477 14.3248Z" fill="#FBBC05"/>
<path d="M11.7491 4.62403C13.9551 4.62403 15.4432 5.59401 16.2917 6.40461L19.6073 3.10928C17.571 1.1826 14.9211 0 11.7491 0C7.15415 0 3.18583 2.68406 1.25391 6.59056L5.0525 9.59359C6.00551 6.7102 8.64232 4.62403 11.7491 4.62403Z" fill="#EB4335"/>
</g>
<defs>
<clipPath id="clip0_0_320">
<rect width="23.04" height="24" fill="white"/>
</clipPath>
</defs>
</svg>
